<svg xmlns="http://www.w3.org/2000/svg" width="1280" height="720" viewBox="0 0 1280 720">
  <g transform="translate(64 53)">
    <rect width="60" height="60" rx="14" fill="#f3f0e8"/>
    <g transform="translate(8.5 8.5) scale(.021)">
      <path fill="#245248" d="M1326.56 1499.77c-.85-39.03-.02-81.99.02-120.3l.06-238.96c-.05-20.44.92-64.05-2.26-81.35-6.81-38.48-36.82-69.1-74.41-77.95-10.6-2.48-20.85-2.19-31.66-3.4-25.65-3.07-49.53-14.61-67.88-32.79-15.49-15.32-26.18-34.81-30.78-56.1-3.66-17.14-2.81-38.4-2.77-56.26l-.06-345c.07-43.01-.32-70.15 32.12-102.88 35.3-35.62 70.59-31.85 116.01-31.82l436.47.11-.05 1150.17-371.56.17-3.43-3.14zM346.74 353.14l473.65-.04c50.56-.81 97.95 37.83 106.87 87.67 3.58 20 2.46 43.8 2.45 64.32l-.14 356.07c.03 54.7-31.94 98.92-85.16 113.54-12.05 3.43-24.47 3.34-36.86 4.73-42.66 4.77-76.17 37.78-83.39 79.81-3.03 17.63-1.97 36.99-1.94 54.93l-.11 385.04-3.71 3.55-371.92-.05.26-1149.57z"/>
      <path fill="#a9503a" d="M918.77 1075.28l210.45-.23c1.37 38.26 4.66 75.44 12.64 112.98 24.89 117.12 91.44 225.01 178.57 306.25 82.1 72.34 191.43 130.53 293 169.31 18.47 6.67 37.11 12.89 55.89 18.64 9.75 2.95 29.2 7.93 38.32 12.03-30.22 1.43-1362.36 1.35-1362.85-.8 10.73-5.33 28.14-10.12 40.99-14.13 116.14-35.05 238.91-93.53 332.62-176.57 1.6-1.29 3.02-2.16 3.76-3.55 109.25-99.4 182.72-267.88 196.61-423.93z"/>
    </g>
    <text x="80" y="43" fill="#f3f0e8" font-family="Arial, Helvetica, sans-serif" font-size="29" font-weight="800" letter-spacing="4">STAY</text>
  </g>
  <text x="66" y="176" fill="#c4ddd5" font-family="Arial, Helvetica, sans-serif" font-size="18" font-weight="700" letter-spacing="3.4">ALEXA+  ·  AWS BUILDER</text>
  <text x="62" y="292" fill="#fffdf7" font-family="Arial, Helvetica, sans-serif" font-size="66" font-weight="800">INDEPENDENCE,</text>
  <text x="62" y="365" fill="#fffdf7" font-family="Arial, Helvetica, sans-serif" font-size="66" font-weight="800">WITH A PLAN.</text>
  <rect x="66" y="405" width="128" height="8" rx="4" fill="#cf664b"/>
  <text x="66" y="459" fill="#f3f0e8" font-family="Arial, Helvetica, sans-serif" font-size="23" font-weight="600">Accessible living + trusted Circle coordination</text>
  <g transform="translate(66 563)">
    <rect width="382" height="62" rx="31" fill="#f3f0e8" fill-opacity="0.97"/>
    <circle cx="31" cy="31" r="8" fill="#a9503a"/>
    <text x="54" y="39" fill="#173e36" font-family="Arial, Helvetica, sans-serif" font-size="21" font-weight="800">STAY AT HOME. IN CONTROL.</text>
  </g>
</svg>
